<?xml version="1.0" encoding="UTF-8"?>
<!DOCTYPE svg PUBLIC "-//W3C//DTD SVG 1.1//EN" "http://www.w3.org/Graphics/SVG/1.1/DTD/svg11.dtd">
<svg xmlns="http://www.w3.org/2000/svg" version="1.1" width="500px" height="500px" style="shape-rendering:geometricPrecision; text-rendering:geometricPrecision; image-rendering:optimizeQuality; fill-rule:evenodd; clip-rule:evenodd" xmlns:xlink="http://www.w3.org/1999/xlink">
<g><path style="opacity:1" fill="#fefefe" d="M -0.5,-0.5 C 166.167,-0.5 332.833,-0.5 499.5,-0.5C 499.5,166.167 499.5,332.833 499.5,499.5C 332.833,499.5 166.167,499.5 -0.5,499.5C -0.5,332.833 -0.5,166.167 -0.5,-0.5 Z"/></g>
<g><path style="opacity:1" fill="#e67632" d="M 30.5,197.5 C 61.5018,197.333 92.5018,197.5 123.5,198C 124.931,198.465 126.097,199.299 127,200.5C 127.667,235.167 127.667,269.833 127,304.5C 126.626,305.416 126.126,306.25 125.5,307C 93.919,308.651 62.2523,308.985 30.5,308C 29.6667,307.167 28.8333,306.333 28,305.5C 26.3473,270.918 26.0139,236.252 27,201.5C 27.6897,199.65 28.8564,198.316 30.5,197.5 Z"/></g>
<g><path style="opacity:1" fill="#fefcfb" d="M 72.5,211.5 C 77.5,211.5 82.5,211.5 87.5,211.5C 95.5369,232.58 103.87,253.58 112.5,274.5C 107.167,275.833 101.833,275.833 96.5,274.5C 94.9574,270.539 93.624,266.539 92.5,262.5C 84.1401,262.169 75.8068,262.502 67.5,263.5C 65.5621,267.314 64.2287,271.314 63.5,275.5C 58.1667,275.5 52.8333,275.5 47.5,275.5C 55.4379,254.021 63.7713,232.687 72.5,211.5 Z"/></g>
<g><path style="opacity:1" fill="#070707" d="M 415.5,248.5 C 414.711,248.783 414.044,249.283 413.5,250C 418.489,250.499 423.489,250.666 428.5,250.5C 428.5,253.167 428.5,255.833 428.5,258.5C 417.833,258.5 407.167,258.5 396.5,258.5C 396.351,257.448 396.517,256.448 397,255.5C 405.087,249.415 411.754,242.082 417,233.5C 419.071,226.421 416.571,223.254 409.5,224C 407.3,226.234 405.467,228.734 404,231.5C 401.978,230.214 399.811,229.214 397.5,228.5C 398.145,222.637 401.479,218.471 407.5,216C 421.044,213.565 427.877,219.065 428,232.5C 425.525,239.143 421.358,244.477 415.5,248.5 Z"/></g>
<g><path style="opacity:1" fill="#090909" d="M 463.5,215.5 C 474.15,214.075 481.316,218.408 485,228.5C 485.877,235.249 485.544,241.916 484,248.5C 480.184,256.89 473.684,260.39 464.5,259C 456.843,256.203 452.677,250.703 452,242.5C 449.361,230.546 453.194,221.546 463.5,215.5 Z"/></g>
<g><path style="opacity:1" fill="#030303" d="M 148.5,258.5 C 148.44,257.957 148.107,257.624 147.5,257.5C 146.502,265.807 146.169,274.14 146.5,282.5C 142.167,282.5 137.833,282.5 133.5,282.5C 133.5,261.833 133.5,241.167 133.5,220.5C 137.833,220.5 142.167,220.5 146.5,220.5C 146.238,221.978 146.571,223.311 147.5,224.5C 149.359,222.808 151.359,221.308 153.5,220C 169.921,217.362 179.254,224.195 181.5,240.5C 179.708,256.797 170.708,263.964 154.5,262C 152.273,261.059 150.273,259.892 148.5,258.5 Z"/></g>
<g><path style="opacity:1" fill="#060606" d="M 202.5,219.5 C 214.807,216.917 224.641,220.583 232,230.5C 237.372,246.255 232.206,256.755 216.5,262C 202.27,265.299 192.104,260.466 186,247.5C 183.055,233.042 188.555,223.709 202.5,219.5 Z"/></g>
<g><path style="opacity:1" fill="#040404" d="M 251.5,219.5 C 255.846,219.334 260.179,219.501 264.5,220C 267.112,220.639 269.446,221.806 271.5,223.5C 272.386,222.675 272.719,221.675 272.5,220.5C 277.167,220.5 281.833,220.5 286.5,220.5C 286.667,236.17 286.5,251.837 286,267.5C 281.912,279.478 273.412,284.812 260.5,283.5C 251.115,283.811 244.115,279.978 239.5,272C 242.779,269.777 246.279,267.943 250,266.5C 256.059,272.154 262.559,272.821 269.5,268.5C 272.146,265.628 272.979,262.295 272,258.5C 263.656,263.626 255.156,263.793 246.5,259C 239.286,251.992 236.786,243.492 239,233.5C 241.636,227.369 245.803,222.703 251.5,219.5 Z"/></g>
<g><path style="opacity:1" fill="#060606" d="M 308.5,219.5 C 327.309,216.196 337.309,223.862 338.5,242.5C 328.5,242.5 318.5,242.5 308.5,242.5C 308.245,246.493 309.911,249.326 313.5,251C 316.167,251.667 318.833,251.667 321.5,251C 323.443,249.445 325.61,248.278 328,247.5C 331.227,248.864 334.394,250.364 337.5,252C 330.421,261.251 321.087,264.585 309.5,262C 293.503,254.514 289.67,243.014 298,227.5C 300.94,223.963 304.44,221.297 308.5,219.5 Z"/></g>
<g><path style="opacity:1" fill="#060606" d="M 386.5,242.5 C 376.5,242.5 366.5,242.5 356.5,242.5C 356.263,243.791 356.596,244.791 357.5,245.5C 359.766,250.796 363.766,252.63 369.5,251C 375.257,246.265 380.59,246.765 385.5,252.5C 377.549,262.09 367.549,264.923 355.5,261C 344.443,255.048 340.277,245.882 343,233.5C 351.305,218.825 363.138,215.325 378.5,223C 384.97,227.903 387.636,234.403 386.5,242.5 Z"/></g>
<g><path style="opacity:1" fill="#666666" d="M 146.5,220.5 C 142.167,220.5 137.833,220.5 133.5,220.5C 133.5,241.167 133.5,261.833 133.5,282.5C 132.503,261.673 132.169,240.673 132.5,219.5C 137.363,219.181 142.03,219.514 146.5,220.5 Z"/></g>
<g><path style="opacity:1" fill="#f5f5f5" d="M 466.5,223.5 C 471.929,223.426 475.096,226.093 476,231.5C 476.913,237.042 476.246,242.375 474,247.5C 467.948,252.379 463.948,251.046 462,243.5C 461.333,238.833 461.333,234.167 462,229.5C 463.332,227.34 464.832,225.34 466.5,223.5 Z"/></g>
<g><path style="opacity:1" fill="#f6f6f6" d="M 323.5,232.5 C 318.944,234.442 313.944,235.108 308.5,234.5C 308.738,231.852 310.072,230.018 312.5,229C 317.181,227.519 320.848,228.686 323.5,232.5 Z"/></g>
<g><path style="opacity:1" fill="#f7f7f7" d="M 360.5,228.5 C 364.839,227.846 368.673,228.846 372,231.5C 372.483,232.448 372.649,233.448 372.5,234.5C 367.5,234.5 362.5,234.5 357.5,234.5C 357.615,232.053 358.615,230.053 360.5,228.5 Z"/></g>
<g><path style="opacity:1" fill="#f4f4f4" d="M 151.5,231.5 C 161.496,229.681 166.329,233.681 166,243.5C 161.764,251.009 156.098,252.342 149,247.5C 145.182,241.409 146.015,236.075 151.5,231.5 Z"/></g>
<g><path style="opacity:1" fill="#f8f8f8" d="M 205.5,231.5 C 214.998,230.173 219.498,234.173 219,243.5C 217.586,248.532 214.252,250.866 209,250.5C 201.247,249.014 198.58,244.347 201,236.5C 202.025,234.313 203.525,232.646 205.5,231.5 Z"/></g>
<g><path style="opacity:1" fill="#fafafa" d="M 258.5,231.5 C 267.995,230.17 272.495,234.17 272,243.5C 269.497,249.461 264.997,251.628 258.5,250C 251.85,243.713 251.85,237.546 258.5,231.5 Z"/></g>
<g><path style="opacity:1" fill="#e77937" d="M 79.5,231.5 C 82.3528,237.22 84.6862,243.22 86.5,249.5C 82.1667,249.5 77.8333,249.5 73.5,249.5C 74.9339,243.302 76.9339,237.302 79.5,231.5 Z"/></g>
<g><path style="opacity:1" fill="#fef8f5" d="M 36.5,232.5 C 40.8004,232.815 42.467,235.149 41.5,239.5C 42.675,239.281 43.675,239.614 44.5,240.5C 41.2317,241.487 37.8984,241.82 34.5,241.5C 34.0653,238.162 34.7319,235.162 36.5,232.5 Z"/></g>
<g><path style="opacity:1" fill="#656565" d="M 323.5,232.5 C 324.404,233.209 324.737,234.209 324.5,235.5C 318.974,235.821 313.64,235.488 308.5,234.5C 313.944,235.108 318.944,234.442 323.5,232.5 Z"/></g>
<g><path style="opacity:1" fill="#e77e3d" d="M 36.5,235.5 C 37.5,235.5 38.5,235.5 39.5,235.5C 39.5,236.833 39.5,238.167 39.5,239.5C 38.5,239.5 37.5,239.5 36.5,239.5C 36.5,238.167 36.5,236.833 36.5,235.5 Z"/></g>
<g><path style="opacity:1" fill="#b5b5b5" d="M 386.5,242.5 C 376.624,242.843 366.957,243.843 357.5,245.5C 356.596,244.791 356.263,243.791 356.5,242.5C 366.5,242.5 376.5,242.5 386.5,242.5 Z"/></g>
<g><path style="opacity:1" fill="#fef7f3" d="M 36.5,243.5 C 38.4835,243.383 40.1502,244.05 41.5,245.5C 42.4776,245.023 43.3109,244.357 44,243.5C 44.6667,244.5 44.6667,245.5 44,246.5C 42.2942,247.308 41.4609,248.641 41.5,250.5C 42.675,250.281 43.675,250.614 44.5,251.5C 41.2317,252.487 37.8984,252.82 34.5,252.5C 34.0653,249.162 34.7319,246.162 36.5,243.5 Z"/></g>
<g><path style="opacity:1" fill="#e77e3d" d="M 36.5,246.5 C 37.5,246.5 38.5,246.5 39.5,246.5C 39.5,247.833 39.5,249.167 39.5,250.5C 38.5,250.5 37.5,250.5 36.5,250.5C 36.5,249.167 36.5,247.833 36.5,246.5 Z"/></g>
<g><path style="opacity:1" fill="#0d0d0d" d="M 438.5,247.5 C 446.957,248.437 448.624,252.27 443.5,259C 437.171,259.668 434.671,256.834 436,250.5C 437.045,249.627 437.878,248.627 438.5,247.5 Z"/></g>
<g><path style="opacity:1" fill="#848484" d="M 415.5,248.5 C 419.97,249.486 424.637,249.819 429.5,249.5C 429.81,252.713 429.477,255.713 428.5,258.5C 428.5,255.833 428.5,253.167 428.5,250.5C 423.489,250.666 418.489,250.499 413.5,250C 414.044,249.283 414.711,248.783 415.5,248.5 Z"/></g>
<g><path style="opacity:1" fill="#fdf2eb" d="M 34.5,254.5 C 35.9986,255.678 36.9986,257.345 37.5,259.5C 38.8333,254.167 40.1667,254.167 41.5,259.5C 42.1667,257.833 42.8333,256.167 43.5,254.5C 44.48,257.086 44.8134,259.753 44.5,262.5C 41.1667,262.5 37.8333,262.5 34.5,262.5C 34.5,259.833 34.5,257.167 34.5,254.5 Z"/></g>
<g><path style="opacity:1" fill="#616161" d="M 148.5,258.5 C 147.833,266.5 147.167,274.5 146.5,282.5C 146.169,274.14 146.502,265.807 147.5,257.5C 148.107,257.624 148.44,257.957 148.5,258.5 Z"/></g>
</svg>
